<?xml version="1.0" standalone="no"?>
<!DOCTYPE svg PUBLIC "-//W3C//DTD SVG 20010904//EN"
 "http://www.w3.org/TR/2001/REC-SVG-20010904/DTD/svg10.dtd">
<svg version="1.0" xmlns="http://www.w3.org/2000/svg"
 width="600.000000pt" height="600.000000pt" viewBox="0 0 600.000000 600.000000"
 preserveAspectRatio="xMidYMid meet">
<metadata>
Created by potrace 1.11, written by Peter Selinger 2001-2013
</metadata>
<g transform="translate(0.000000,600.000000) scale(0.100000,-0.100000)"
fill="#000000" stroke="none">
<path d="M2103 4799 c-54 -10 -101 -34 -139 -73 -38 -38 -674 -947 -704 -1007
-33 -63 -31 -151 4 -222 31 -63 54 -85 194 -181 l100 -69 -50 -71 c-28 -39
-51 -72 -52 -73 -1 -1 -53 34 -116 78 -134 94 -166 109 -235 111 -84 2 -140
-18 -192 -70 -44 -43 -700 -985 -719 -1031 -11 -29 -15 -61 -12 -104 5 -70 26
-120 68 -163 30 -32 688 -497 755 -534 81 -46 202 -35 281 25 18 14 90 107
161 207 70 101 226 323 345 493 237 338 256 374 243 469 -13 102 -47 145 -200
250 -55 38 -104 72 -109 77 -11 9 86 150 100 145 6 -2 55 -35 110 -74 54 -38
114 -77 133 -87 82 -42 213 -25 283 37 20 18 170 224 333 458 163 234 310 443
326 465 114 153 111 300 -9 405 -75 66 -728 517 -764 528 -54 16 -91 19 -135
11z m368 -538 l299 -209 -33 -48 c-56 -80 -559 -799 -563 -803 -4 -4 -174 109
-174 116 0 2 36 55 80 118 44 64 85 125 91 137 18 33 6 119 -21 156 -46 61
-138 82 -203 45 -26 -15 -111 -124 -197 -251 l-15 -23 -88 61 -87 61 57 82
c32 46 166 236 298 425 131 188 243 342 248 342 5 0 144 -94 308 -209z m-1201
-1416 c0 -5 -32 -55 -71 -110 -118 -167 -127 -195 -86 -275 42 -84 151 -114
226 -61 16 12 67 74 112 139 45 64 84 119 85 121 3 3 144 -89 168 -110 7 -7
-23 -53 -163 -254 -19 -27 -90 -129 -157 -225 -240 -342 -268 -380 -275 -378
-4 2 -142 97 -307 212 l-299 209 300 428 300 428 83 -57 c46 -31 84 -61 84
-67z"/>
<path d="M3957 4749 c-26 -9 -62 -29 -79 -45 -36 -34 -693 -970 -720 -1025
-22 -46 -25 -131 -8 -185 26 -80 52 -105 242 -235 l67 -47 -50 -71 c-27 -39
-52 -71 -55 -71 -6 0 -160 105 -184 125 -98 83 -257 82 -348 -2 -22 -21 -114
-144 -204 -273 -90 -129 -185 -264 -210 -300 -24 -36 -98 -142 -164 -236 -65
-94 -127 -185 -137 -202 -41 -72 -30 -197 23 -271 34 -47 742 -546 810 -571
97 -36 228 0 288 78 14 18 166 234 338 480 172 246 316 452 321 457 31 36 48
94 48 165 -1 120 -29 160 -197 277 -59 41 -110 77 -112 81 -6 11 85 142 99
142 6 0 20 -7 30 -15 54 -42 179 -127 217 -146 84 -43 209 -27 281 36 50 44
704 982 727 1044 25 67 19 146 -16 212 -31 57 -51 73 -312 255 -78 54 -185
129 -237 166 -288 206 -327 221 -458 177z m294 -439 c90 -63 191 -134 224
-157 33 -23 90 -63 127 -89 44 -30 65 -50 60 -58 -10 -17 -113 -166 -180 -262
-31 -45 -136 -194 -232 -332 -198 -282 -169 -262 -274 -186 -33 24 -64 45 -70
47 -6 2 11 35 37 73 27 38 68 98 93 133 38 55 44 70 44 116 0 37 -6 62 -23 86
-27 41 -95 78 -139 75 -69 -5 -99 -30 -186 -156 -46 -66 -88 -122 -93 -126 -5
-3 -47 21 -93 53 l-83 58 21 32 c11 18 120 173 241 345 121 172 240 342 264
378 59 87 72 101 86 92 6 -4 85 -59 176 -122z m-1156 -1440 l84 -60 -89 -127
c-98 -140 -113 -181 -87 -243 40 -94 149 -131 233 -79 17 10 70 75 118 144
l87 124 72 -51 c40 -27 78 -56 86 -63 11 -11 -36 -84 -284 -436 -163 -233
-301 -423 -306 -421 -16 4 -599 415 -599 421 0 5 340 494 402 578 12 17 61 86
107 152 46 67 86 121 89 121 2 0 41 -27 87 -60z"/>
<path d="M4865 3219 c-70 -10 -114 -31 -156 -76 -20 -21 -187 -254 -371 -518
-359 -514 -367 -529 -354 -626 14 -105 43 -141 201 -250 53 -37 67 -47 408
-286 218 -152 258 -173 330 -173 81 0 129 20 187 80 52 53 671 930 707 1001
10 20 18 63 19 104 3 85 -27 158 -84 203 -32 26 -424 302 -658 464 -95 66
-158 87 -229 77z m352 -539 c158 -111 289 -205 291 -209 3 -8 -555 -811 -583
-840 -11 -11 -60 19 -314 195 -169 118 -298 214 -296 221 3 10 336 489 542
781 27 38 50 61 58 58 7 -2 143 -95 302 -206z"/>
<path d="M4985 2596 c-68 -29 -108 -113 -86 -176 26 -75 84 -120 154 -120 67
0 116 32 142 93 20 49 19 80 -5 127 -37 73 -132 108 -205 76z"/>
</g>
</svg>
