<svg id="Layer_1" data-name="Layer 1" xmlns="http://www.w3.org/2000/svg" viewBox="0 0 1920 960"><defs><style>.cls-1{fill:#514a9d;}.cls-2,.cls-3{fill:none;stroke-miterlimit:10;}.cls-2{stroke:#514a9d;stroke-width:10px;}.cls-3{stroke:#24c6dc;stroke-width:5px;}.cls-4{fill:#f4f5f6;}.cls-5{fill:#24c6dc;}</style></defs><title>before-after</title><path class="cls-1" d="M273.58,337.33a36.53,36.53,0,1,0-38.16,0C212.87,342.38,197,356.18,197,372.88c0,13.67,36.12,17.32,57.46,17.32S312,386.55,312,372.88C312,356.18,296.13,342.38,273.58,337.33ZM225.5,306.28a29,29,0,1,1,29,29A29,29,0,0,1,225.5,306.28Zm29,76.39c-30.68,0-49-6.47-49.93-9.81,0-16.6,22.41-30.1,49.93-30.1s49.91,13.5,49.93,30.09C303.56,376.2,285.2,382.67,254.5,382.67Z"/><path class="cls-1" d="M705.58,652.33a36.53,36.53,0,1,0-38.16,0c-22.55,5-38.38,18.85-38.38,35.55,0,13.67,36.12,17.32,57.46,17.32S744,701.55,744,687.88C744,671.18,728.13,657.38,705.58,652.33ZM657.5,621.28a29,29,0,1,1,29,29A29,29,0,0,1,657.5,621.28Zm29,76.39c-30.68,0-49-6.47-49.93-9.81,0-16.6,22.41-30.1,49.93-30.1s49.91,13.5,49.93,30.09C735.56,691.2,717.2,697.67,686.5,697.67Z"/><path class="cls-1" d="M755.58,472.33a36.53,36.53,0,1,0-38.16,0C694.87,477.38,679,491.18,679,507.88c0,13.67,36.12,17.32,57.46,17.32S794,521.55,794,507.88C794,491.18,778.13,477.38,755.58,472.33ZM707.5,441.28a29,29,0,1,1,29,29A29,29,0,0,1,707.5,441.28Zm29,76.39c-30.68,0-49-6.47-49.93-9.81,0-16.6,22.41-30.1,49.93-30.1s49.91,13.5,49.93,30.09C785.56,511.2,767.2,517.67,736.5,517.67Z"/><path class="cls-1" d="M668.58,285.33a36.53,36.53,0,1,0-38.16,0C607.87,290.38,592,304.18,592,320.88c0,13.67,36.12,17.32,57.46,17.32S707,334.55,707,320.88C707,304.18,691.13,290.38,668.58,285.33Zm-48.08-31a29,29,0,1,1,29,29A29,29,0,0,1,620.5,254.28Zm29,76.39c-30.68,0-49-6.47-49.93-9.81,0-16.6,22.41-30.1,49.93-30.1s49.91,13.5,49.93,30.09C698.56,324.2,680.2,330.67,649.5,330.67Z"/><path class="cls-1" d="M453.58,234.33a36.53,36.53,0,1,0-38.16,0c-22.55,5-38.38,18.85-38.38,35.55,0,13.67,36.12,17.32,57.46,17.32S492,283.55,492,269.88C492,253.18,476.13,239.38,453.58,234.33ZM405.5,203.28a29,29,0,1,1,29,28.95A29,29,0,0,1,405.5,203.28Zm29,76.39c-30.68,0-49-6.47-49.93-9.81,0-16.6,22.41-30.1,49.93-30.1s49.91,13.5,49.93,30.09C483.56,273.2,465.2,279.67,434.5,279.67Z"/><path class="cls-1" d="M222.58,528.33a36.53,36.53,0,1,0-38.16,0c-22.55,5-38.38,18.85-38.38,35.55,0,13.67,36.12,17.32,57.46,17.32S261,577.55,261,563.88C261,547.18,245.13,533.38,222.58,528.33ZM174.5,497.28a29,29,0,1,1,29,29A29,29,0,0,1,174.5,497.28Zm29,76.39c-30.68,0-49-6.47-49.93-9.81,0-16.6,22.41-30.1,49.93-30.1s49.91,13.5,49.93,30.09C252.56,567.2,234.2,573.67,203.5,573.67Z"/><path class="cls-1" d="M517.58,740.33a36.53,36.53,0,1,0-38.16,0c-22.55,5-38.38,18.85-38.38,35.55,0,13.67,36.12,17.32,57.46,17.32S556,789.55,556,775.88C556,759.18,540.13,745.38,517.58,740.33ZM469.5,709.28a29,29,0,1,1,29,29A29,29,0,0,1,469.5,709.28Zm29,76.39c-30.68,0-49-6.47-49.93-9.81,0-16.6,22.41-30.1,49.93-30.1s49.91,13.5,49.93,30.09C547.56,779.2,529.2,785.67,498.5,785.67Z"/><path class="cls-1" d="M315.58,691.33a36.53,36.53,0,1,0-38.16,0c-22.55,5-38.38,18.85-38.38,35.55,0,13.67,36.12,17.32,57.46,17.32S354,740.55,354,726.88C354,710.18,338.13,696.38,315.58,691.33ZM267.5,660.28a29,29,0,1,1,29,29A29,29,0,0,1,267.5,660.28Zm29,76.39c-30.68,0-49-6.47-49.93-9.81,0-16.6,22.41-30.1,49.93-30.1s49.91,13.5,49.93,30.09C345.56,730.2,327.2,736.67,296.5,736.67Z"/><line class="cls-2" x1="434.04" y1="330.2" x2="484.04" y2="631.2"/><line class="cls-2" x1="346.04" y1="621.2" x2="592.04" y2="363.2"/><line class="cls-2" x1="649.04" y1="461.2" x2="346.04" y2="390.2"/><path class="cls-2" d="M274,509.2l384-19"/><path class="cls-2" d="M316,392.2c12.7,30.56,57.94,147.44,4,211a96,96,0,0,1-11,11"/><path class="cls-2" d="M508,648.2c21.15-40.68,64.42-106.77,137-125,4.81-1.21,9.81-2.22,15-3"/><line class="cls-2" x1="620.04" y1="621.2" x2="459.04" y2="321.2"/><line class="cls-3" x1="960" y1="124" x2="960" y2="836"/><path class="cls-1" d="M1253.58,337.33a36.53,36.53,0,1,0-38.16,0c-22.55,5.05-38.38,18.85-38.38,35.55,0,13.67,36.12,17.32,57.46,17.32s57.46-3.65,57.46-17.32C1292,356.18,1276.13,342.38,1253.58,337.33Zm-48.08-31.05a29,29,0,1,1,29,29A29,29,0,0,1,1205.5,306.28Zm29,76.39c-30.68,0-49-6.47-49.93-9.81,0-16.6,22.41-30.1,49.93-30.1s49.91,13.5,49.93,30.09C1283.56,376.2,1265.2,382.67,1234.5,382.67Z"/><path class="cls-1" d="M1685.58,652.33a36.53,36.53,0,1,0-38.16,0c-22.55,5-38.38,18.85-38.38,35.55,0,13.67,36.12,17.32,57.46,17.32s57.46-3.65,57.46-17.32C1724,671.18,1708.13,657.38,1685.58,652.33Zm-48.08-31.05a29,29,0,1,1,29,29A29,29,0,0,1,1637.5,621.28Zm29,76.39c-30.68,0-49-6.47-49.93-9.81,0-16.6,22.41-30.1,49.93-30.1s49.91,13.5,49.93,30.09C1715.56,691.2,1697.2,697.67,1666.5,697.67Z"/><path class="cls-1" d="M1735.58,472.33a36.53,36.53,0,1,0-38.16,0c-22.55,5.05-38.38,18.85-38.38,35.55,0,13.67,36.12,17.32,57.46,17.32s57.46-3.65,57.46-17.32C1774,491.18,1758.13,477.38,1735.58,472.33Zm-48.08-31.05a29,29,0,1,1,29,29A29,29,0,0,1,1687.5,441.28Zm29,76.39c-30.68,0-49-6.47-49.93-9.81,0-16.6,22.41-30.1,49.93-30.1s49.91,13.5,49.93,30.09C1765.56,511.2,1747.2,517.67,1716.5,517.67Z"/><path class="cls-1" d="M1648.58,285.33a36.53,36.53,0,1,0-38.16,0c-22.55,5.05-38.38,18.85-38.38,35.55,0,13.67,36.12,17.32,57.46,17.32s57.46-3.65,57.46-17.32C1687,304.18,1671.13,290.38,1648.58,285.33Zm-48.08-31a29,29,0,1,1,29,29A29,29,0,0,1,1600.5,254.28Zm29,76.39c-30.68,0-49-6.47-49.93-9.81,0-16.6,22.41-30.1,49.93-30.1s49.91,13.5,49.93,30.09C1678.56,324.2,1660.2,330.67,1629.5,330.67Z"/><path class="cls-1" d="M1433.58,234.33a36.53,36.53,0,1,0-38.16,0c-22.55,5-38.38,18.85-38.38,35.55,0,13.67,36.12,17.32,57.46,17.32s57.46-3.65,57.46-17.32C1472,253.18,1456.13,239.38,1433.58,234.33Zm-48.08-31.05a29,29,0,1,1,29,28.95A29,29,0,0,1,1385.5,203.28Zm29,76.39c-30.68,0-49-6.47-49.93-9.81,0-16.6,22.41-30.1,49.93-30.1s49.91,13.5,49.93,30.09C1463.56,273.2,1445.2,279.67,1414.5,279.67Z"/><path class="cls-1" d="M1202.58,528.33a36.53,36.53,0,1,0-38.16,0c-22.55,5-38.38,18.85-38.38,35.55,0,13.67,36.12,17.32,57.46,17.32s57.46-3.65,57.46-17.32C1241,547.18,1225.13,533.38,1202.58,528.33Zm-48.08-31.05a29,29,0,1,1,29,29A29,29,0,0,1,1154.5,497.28Zm29,76.39c-30.68,0-49-6.47-49.93-9.81,0-16.6,22.41-30.1,49.93-30.1s49.91,13.5,49.93,30.09C1232.56,567.2,1214.2,573.67,1183.5,573.67Z"/><path class="cls-1" d="M1497.58,740.33a36.53,36.53,0,1,0-38.16,0c-22.55,5-38.38,18.85-38.38,35.55,0,13.67,36.12,17.32,57.46,17.32s57.46-3.65,57.46-17.32C1536,759.18,1520.13,745.38,1497.58,740.33Zm-48.08-31.05a29,29,0,1,1,29,29A29,29,0,0,1,1449.5,709.28Zm29,76.39c-30.68,0-49-6.47-49.93-9.81,0-16.6,22.41-30.1,49.93-30.1s49.91,13.5,49.93,30.09C1527.56,779.2,1509.2,785.67,1478.5,785.67Z"/><path class="cls-1" d="M1295.58,691.33a36.53,36.53,0,1,0-38.16,0c-22.55,5-38.38,18.85-38.38,35.55,0,13.67,36.12,17.32,57.46,17.32s57.46-3.65,57.46-17.32C1334,710.18,1318.13,696.38,1295.58,691.33Zm-48.08-31.05a29,29,0,1,1,29,29A29,29,0,0,1,1247.5,660.28Zm29,76.39c-30.68,0-49-6.47-49.93-9.81,0-16.6,22.41-30.1,49.93-30.1s49.91,13.5,49.93,30.09C1325.56,730.2,1307.2,736.67,1276.5,736.67Z"/><line class="cls-2" x1="1421.04" y1="323" x2="1449.04" y2="492"/><line class="cls-2" x1="1580.04" y1="363" x2="1517.04" y2="449"/><line class="cls-2" x1="1637.04" y1="470" x2="1523.04" y2="470"/><line class="cls-2" x1="1592.04" y1="621" x2="1523.04" y2="543"/><line class="cls-2" x1="1478.04" y1="645" x2="1464.04" y2="554"/><line class="cls-2" x1="1326.04" y1="612" x2="1385.04" y2="543"/><line class="cls-2" x1="1263.04" y1="518" x2="1357.04" y2="510"/><line class="cls-2" x1="1297.04" y1="403" x2="1365.04" y2="449"/><rect class="cls-4" x="1326.04" y="403" width="246" height="178" rx="12" ry="12"/><path class="cls-1" d="M1391.22,493.2h0m-.74,1.07,18.85,13.21-18.5,26.43L1372,520.69l18.5-26.42m-.31-9.87a8.06,8.06,0,0,0-6.63,3.43l-20,28.55a8.09,8.09,0,0,0,2,11.24l21,14.68a8.09,8.09,0,0,0,11.23-2l20-28.54a8.09,8.09,0,0,0-2-11.24l-21-14.69a8,8,0,0,0-4.61-1.45Z"/><path class="cls-1" d="M1423.7,446.82h0m-.75,1.07,18.85,13.2-18.5,26.43-18.85-13.22,18.5-26.42m-.31-9.88a8,8,0,0,0-6.61,3.43L1396,470a8.08,8.08,0,0,0,2,11.22l21,14.71a8.08,8.08,0,0,0,11.22-2l20-28.58a8.08,8.08,0,0,0-2-11.22l-21-14.69a8,8,0,0,0-4.61-1.44Z"/><rect class="cls-5" x="1381.39" y="486.04" width="50.99" height="9.69" rx="4.75" ry="4.75" transform="translate(197.82 1361.78) rotate(-55)"/><path class="cls-1" d="M1449.64,494.31h0m-.74,1.06,18.84,13.2L1449.25,535l-18.85-13.21,18.5-26.43m-.31-9.87a8.12,8.12,0,0,0-6.63,3.43l-20,28.55a8.09,8.09,0,0,0,2,11.24l21,14.69a8.1,8.1,0,0,0,11.24-2l20-28.55a8.1,8.1,0,0,0-2-11.24l-21-14.69a8.07,8.07,0,0,0-4.61-1.45Z"/><path class="cls-1" d="M1482.12,447.92h0m-.75,1.08,18.85,13.19-18.5,26.43-18.85-13.21,18.5-26.43m-.31-9.88a8.08,8.08,0,0,0-6.61,3.43l-20,28.58a8.07,8.07,0,0,0,2,11.21l21,14.71a8.06,8.06,0,0,0,11.21-2l20-28.58a8.07,8.07,0,0,0-2-11.21l-21-14.69a8.07,8.07,0,0,0-4.61-1.45Z"/><rect class="cls-5" x="1439.81" y="487.15" width="50.99" height="9.69" rx="4.75" ry="4.75" transform="translate(221.82 1410.11) rotate(-55)"/><path class="cls-1" d="M1508.07,495.41h0m-.75,1.06,18.85,13.22-18.5,26.43-18.84-13.22,18.49-26.43m-.3-9.86a8.06,8.06,0,0,0-6.63,3.44l-20,28.53a8.11,8.11,0,0,0,2,11.25l21,14.68a8.09,8.09,0,0,0,11.24-2l20-28.55a8.07,8.07,0,0,0-2-11.23l-21-14.69a8,8,0,0,0-4.61-1.45Z"/><rect class="cls-5" x="1507.12" y="505.33" width="9.3" height="9.69" rx="4.65" ry="4.65" transform="translate(226.75 1455.92) rotate(-55)"/><polygon class="cls-5" points="988 480 959.81 431.17 959.81 528.83 988 480"/></svg>