<svg id="Layer_1" data-name="Layer 1" xmlns="http://www.w3.org/2000/svg" viewBox="0 0 1920 1080"><defs><style>.cls-1{fill:#fff;}.cls-2{fill:none;stroke:#fff;stroke-miterlimit:10;stroke-width:5px;opacity:0.5;}</style></defs><title>chain</title><circle class="cls-1" cx="257.5" cy="293.5" r="17"/><path class="cls-1" d="M257.5,277A16.5,16.5,0,1,1,241,293.5,16.52,16.52,0,0,1,257.5,277m0-1A17.5,17.5,0,1,0,275,293.5,17.51,17.51,0,0,0,257.5,276Z"/><circle class="cls-1" cx="1407.5" cy="768.5" r="17"/><path class="cls-1" d="M1407.5,752a16.5,16.5,0,1,1-16.5,16.5,16.52,16.52,0,0,1,16.5-16.5m0-1a17.5,17.5,0,1,0,17.5,17.5,17.5,17.5,0,0,0-17.5-17.5Z"/><circle class="cls-1" cx="1557.5" cy="983.5" r="17"/><path class="cls-1" d="M1557.5,967a16.5,16.5,0,1,1-16.5,16.5,16.52,16.52,0,0,1,16.5-16.5m0-1a17.5,17.5,0,1,0,17.5,17.5,17.5,17.5,0,0,0-17.5-17.5Z"/><circle class="cls-1" cx="1727.5" cy="803.5" r="17"/><path class="cls-1" d="M1727.5,787a16.5,16.5,0,1,1-16.5,16.5,16.52,16.52,0,0,1,16.5-16.5m0-1a17.5,17.5,0,1,0,17.5,17.5,17.5,17.5,0,0,0-17.5-17.5Z"/><circle class="cls-1" cx="1574.5" cy="425.5" r="17"/><path class="cls-1" d="M1574.5,409a16.5,16.5,0,1,1-16.5,16.5,16.52,16.52,0,0,1,16.5-16.5m0-1a17.5,17.5,0,1,0,17.5,17.5,17.5,17.5,0,0,0-17.5-17.5Z"/><circle class="cls-1" cx="1297.5" cy="95.5" r="17"/><path class="cls-1" d="M1297.5,79A16.5,16.5,0,1,1,1281,95.5,16.52,16.52,0,0,1,1297.5,79m0-1A17.5,17.5,0,1,0,1315,95.5,17.5,17.5,0,0,0,1297.5,78Z"/><circle class="cls-1" cx="1040.5" cy="275.5" r="17"/><path class="cls-1" d="M1040.5,259a16.5,16.5,0,1,1-16.5,16.5,16.52,16.52,0,0,1,16.5-16.5m0-1a17.5,17.5,0,1,0,17.5,17.5,17.5,17.5,0,0,0-17.5-17.5Z"/><circle class="cls-1" cx="437.5" cy="521.5" r="17"/><path class="cls-1" d="M437.5,505A16.5,16.5,0,1,1,421,521.5,16.52,16.52,0,0,1,437.5,505m0-1A17.5,17.5,0,1,0,455,521.5,17.51,17.51,0,0,0,437.5,504Z"/><circle class="cls-1" cx="328.5" cy="768.5" r="17"/><path class="cls-1" d="M328.5,752A16.5,16.5,0,1,1,312,768.5,16.52,16.52,0,0,1,328.5,752m0-1A17.5,17.5,0,1,0,346,768.5,17.51,17.51,0,0,0,328.5,751Z"/><circle class="cls-1" cx="624.5" cy="130.5" r="17"/><path class="cls-1" d="M624.5,114A16.5,16.5,0,1,1,608,130.5,16.52,16.52,0,0,1,624.5,114m0-1A17.5,17.5,0,1,0,642,130.5,17.51,17.51,0,0,0,624.5,113Z"/><circle class="cls-1" cx="74.5" cy="555.5" r="17"/><path class="cls-1" d="M74.5,539A16.5,16.5,0,1,1,58,555.5,16.52,16.52,0,0,1,74.5,539m0-1A17.5,17.5,0,1,0,92,555.5,17.51,17.51,0,0,0,74.5,538Z"/><circle class="cls-1" cx="1225.5" cy="966.5" r="17"/><path class="cls-1" d="M1225.5,950a16.5,16.5,0,1,1-16.5,16.5,16.52,16.52,0,0,1,16.5-16.5m0-1a17.5,17.5,0,1,0,17.5,17.5,17.5,17.5,0,0,0-17.5-17.5Z"/><circle class="cls-1" cx="780.5" cy="803.5" r="17"/><path class="cls-1" d="M780.5,787A16.5,16.5,0,1,1,764,803.5,16.52,16.52,0,0,1,780.5,787m0-1A17.5,17.5,0,1,0,798,803.5,17.51,17.51,0,0,0,780.5,786Z"/><circle class="cls-1" cx="554.5" cy="983.5" r="17"/><path class="cls-1" d="M554.5,967A16.5,16.5,0,1,1,538,983.5,16.52,16.52,0,0,1,554.5,967m0-1A17.5,17.5,0,1,0,572,983.5,17.51,17.51,0,0,0,554.5,966Z"/><circle class="cls-1" cx="109.5" cy="186.5" r="17"/><path class="cls-1" d="M109.5,170A16.5,16.5,0,1,1,93,186.5,16.52,16.52,0,0,1,109.5,170m0-1A17.5,17.5,0,1,0,127,186.5,17.51,17.51,0,0,0,109.5,169Z"/><circle class="cls-1" cx="682.5" cy="257.5" r="17"/><path class="cls-1" d="M682.5,241A16.5,16.5,0,1,1,666,257.5,16.52,16.52,0,0,1,682.5,241m0-1A17.5,17.5,0,1,0,700,257.5,17.51,17.51,0,0,0,682.5,240Z"/><circle class="cls-1" cx="925.5" cy="931.5" r="17"/><path class="cls-1" d="M925.5,915A16.5,16.5,0,1,1,909,931.5,16.52,16.52,0,0,1,925.5,915m0-1A17.5,17.5,0,1,0,943,931.5,17.51,17.51,0,0,0,925.5,914Z"/><circle class="cls-1" cx="1675.5" cy="186.5" r="17"/><path class="cls-1" d="M1675.5,170a16.5,16.5,0,1,1-16.5,16.5,16.52,16.52,0,0,1,16.5-16.5m0-1a17.5,17.5,0,1,0,17.5,17.5,17.5,17.5,0,0,0-17.5-17.5Z"/><circle class="cls-1" cx="1675.5" cy="633.5" r="17"/><path class="cls-1" d="M1675.5,617a16.5,16.5,0,1,1-16.5,16.5,16.52,16.52,0,0,1,16.5-16.5m0-1a17.5,17.5,0,1,0,17.5,17.5,17.5,17.5,0,0,0-17.5-17.5Z"/><circle class="cls-1" cx="328.5" cy="95.5" r="17"/><path class="cls-1" d="M328.5,79A16.5,16.5,0,1,1,312,95.5,16.52,16.52,0,0,1,328.5,79m0-1A17.5,17.5,0,1,0,346,95.5,17.51,17.51,0,0,0,328.5,78Z"/><circle class="cls-1" cx="178.5" cy="949.5" r="17"/><path class="cls-1" d="M178.5,933A16.5,16.5,0,1,1,162,949.5,16.52,16.52,0,0,1,178.5,933m0-1A17.5,17.5,0,1,0,196,949.5,17.51,17.51,0,0,0,178.5,932Z"/><polygon class="cls-2" points="109.5 186.5 328.5 95.5 624.5 130.5 1297.5 95.5 1675.5 186.5 1574.5 425.5 1675.5 633.5 1727.5 803.5 1557.5 983.5 1407.5 768.5 1225.5 966.5 925.5 931.5 780.5 803.5 554.5 983.5 328.5 768.5 178.5 949.5 74.5 555.5 437.5 521.5 257.5 293.5 109.5 186.5"/><polyline class="cls-2" points="682.5 257.5 257.5 293.5 328.5 95.5 682.5 257.5 624.5 130.5 1040.5 275.5 1297.5 95.5 1574.5 425.5 1407.5 768.5 1487.5 883.5 1557.5 983.5 2320.5 1080.5"/><polyline class="cls-2" points="437.5 521.5 328.5 768.5 74.5 555.5 780.5 803.5 1407.5 768.5 1727.5 803.5 2011.5 555.5 2011.5 555.5"/><polyline class="cls-2" points="257.5 293.5 74.5 555.5 109.5 186.5 -61.5 95.5"/><line class="cls-2" x1="328.5" y1="95.5" x2="328.5" y2="-115.5"/><line class="cls-2" x1="74.5" y1="555.5" x2="-61.5" y2="768.5"/><line class="cls-2" x1="178.5" y1="949.5" x2="127.5" y2="1267.5"/><line class="cls-2" x1="624.5" y1="130.5" x2="959.5" y2="-36.5"/><line class="cls-2" x1="1297.5" y1="95.5" x2="1810.5" y2="-71.5"/><line class="cls-2" x1="1574.5" y1="425.5" x2="2271.5" y2="275.5"/><line class="cls-2" x1="1675.5" y1="633.5" x2="2195.5" y2="689.5"/><line class="cls-2" x1="1675.5" y1="186.5" x2="2049.5" y2="47.5"/><line class="cls-2" x1="1727.5" y1="803.5" x2="1862.5" y2="1153.5"/><line class="cls-2" x1="1557.5" y1="983.5" x2="1280.5" y2="1281.5"/><line class="cls-2" x1="554.5" y1="983.5" x2="571.5" y2="1252.5"/><line class="cls-2" x1="1225.5" y1="966.5" x2="1077.5" y2="1281.5"/><line class="cls-2" x1="925.5" y1="931.5" x2="1023.5" y2="1241.5"/></svg>