<svg id="Layer_1" data-name="Layer 1" xmlns="http://www.w3.org/2000/svg" viewBox="0 0 600 377.87"><defs><style>.cls-1{fill:#514a9d;}.cls-2{fill:#24c6dc;}</style></defs><title>munilogo3</title><path class="cls-1" d="M111.74,193.27h0m-2.42,3.46,61.34,43-60.2,86-61.34-43,60.2-86m-1-32.11a26.28,26.28,0,0,0-21.57,11.17l-65,92.89a26.35,26.35,0,0,0,6.45,36.58l68.26,47.79A26.33,26.33,0,0,0,133,346.6l65.05-92.89a26.34,26.34,0,0,0-6.45-36.57l-68.26-47.8a26.08,26.08,0,0,0-15-4.72Z"/><path class="cls-1" d="M217.44,42.32h0M215,45.82l61.34,42.95-60.2,86-61.34-43,60.2-86m-1-32.14a26.23,26.23,0,0,0-21.53,11.15l-65.11,93a26.29,26.29,0,0,0,6.44,36.5l68.35,47.86a26.27,26.27,0,0,0,36.49-6.44l65.11-93a26.29,26.29,0,0,0-6.43-36.5L229,18.39a26.05,26.05,0,0,0-15-4.71Z"/><rect class="cls-2" x="146.96" y="102.78" width="31.52" height="165.92" rx="15.45" ry="15.45" transform="translate(189.48 431.22) rotate(-145)"/><path class="cls-1" d="M301.85,196.87h0m-2.42,3.46,61.34,42.95-60.2,86L239.23,286.3l60.2-86m-1-32.12a26.3,26.3,0,0,0-21.57,11.17l-65,92.9a26.32,26.32,0,0,0,6.45,36.57l68.25,47.8a26.34,26.34,0,0,0,36.58-6.45l65-92.9a26.32,26.32,0,0,0-6.45-36.57l-68.25-47.8a26.11,26.11,0,0,0-15-4.72Z"/><path class="cls-1" d="M407.56,45.91h0m-2.46,3.51,61.34,42.94-60.2,86-61.34-43,60.2-86m-1-32.14a26.21,26.21,0,0,0-21.52,11.15l-65.11,93a26.29,26.29,0,0,0,6.43,36.5l68.35,47.85a26.26,26.26,0,0,0,36.5-6.43l65.11-93a26.28,26.28,0,0,0-6.44-36.49L419.08,22a26,26,0,0,0-15-4.71Z"/><rect class="cls-2" x="337.07" y="106.37" width="31.52" height="165.92" rx="15.45" ry="15.45" transform="translate(533.26 546.81) rotate(-145)"/><path class="cls-1" d="M492,200.46h0m-2.43,3.46,61.34,43-60.2,86-61.34-43,60.2-86m-1-32.11A26.28,26.28,0,0,0,467,183L402,275.87a26.35,26.35,0,0,0,6.45,36.58l68.26,47.79a26.33,26.33,0,0,0,36.57-6.45l65-92.89a26.34,26.34,0,0,0-6.45-36.57l-68.26-47.8a26.08,26.08,0,0,0-15-4.72Z"/><rect class="cls-2" x="488.28" y="233.36" width="31.52" height="30.27" rx="15.13" ry="15.13" transform="translate(774.4 741.15) rotate(-145)"/></svg>