<svg id="Layer_1" data-name="Layer 1" xmlns="http://www.w3.org/2000/svg" viewBox="0 0 600 600"><defs><style>.cls-1{fill:#fff;}.cls-2{fill:#24c6dc;}.cls-3{fill:#514a9d;}.cls-4{fill:none;stroke:#514a9d;stroke-miterlimit:10;stroke-width:10px;}</style></defs><title>muniblock</title><rect class="cls-1" x="40" y="40" width="520" height="520" rx="9.5" ry="9.5"/><path class="cls-2" d="M550.5,42.5a7,7,0,0,1,7,7v501a7,7,0,0,1-7,7H49.5a7,7,0,0,1-7-7V49.5a7,7,0,0,1,7-7h501m0-5H49.5a12,12,0,0,0-12,12v501a12,12,0,0,0,12,12h501a12,12,0,0,0,12-12V49.5a12,12,0,0,0-12-12Z"/><path class="cls-3" d="M141.45,130.59a22.87,22.87,0,1,0-23.9,0c-14.12,3.16-24,11.8-24,22.26,0,8.56,22.62,10.84,36,10.84s36-2.28,36-10.84C165.48,142.39,155.57,133.75,141.45,130.59Zm-30.11-19.44a18.16,18.16,0,1,1,18.16,18.13A18.17,18.17,0,0,1,111.34,111.15ZM129.5,159c-19.21,0-30.71-4-31.27-6.14,0-10.4,14-18.85,31.27-18.85s31.25,8.45,31.27,18.84C160.22,154.93,148.72,159,129.5,159Z"/><path class="cls-3" d="M312,130.59a22.87,22.87,0,1,0-23.9,0c-14.12,3.16-24,11.8-24,22.26,0,8.56,22.62,10.84,36,10.84s36-2.28,36-10.84C336,142.39,326.07,133.75,312,130.59Zm-30.11-19.44A18.16,18.16,0,1,1,300,129.28,18.17,18.17,0,0,1,281.84,111.15ZM300,159c-19.21,0-30.71-4-31.27-6.14,0-10.4,14-18.85,31.27-18.85s31.25,8.45,31.27,18.84C330.72,154.93,319.22,159,300,159Z"/><path class="cls-3" d="M482.45,130.59a22.87,22.87,0,1,0-23.9,0c-14.12,3.16-24,11.8-24,22.26,0,8.56,22.62,10.84,36,10.84s36-2.28,36-10.84C506.48,142.39,496.57,133.75,482.45,130.59Zm-30.11-19.44a18.16,18.16,0,1,1,18.16,18.13A18.17,18.17,0,0,1,452.34,111.15ZM470.5,159c-19.21,0-30.71-4-31.27-6.14,0-10.4,14-18.85,31.27-18.85s31.25,8.45,31.27,18.84C501.22,154.93,489.72,159,470.5,159Z"/><path class="cls-3" d="M141.45,304.59a22.87,22.87,0,1,0-23.9,0c-14.12,3.16-24,11.8-24,22.26,0,8.56,22.62,10.84,36,10.84s36-2.28,36-10.84C165.48,316.39,155.57,307.75,141.45,304.59Zm-30.11-19.44a18.16,18.16,0,1,1,18.16,18.13A18.17,18.17,0,0,1,111.34,285.15ZM129.5,333c-19.21,0-30.71-4.05-31.27-6.14,0-10.4,14-18.85,31.27-18.85s31.25,8.45,31.27,18.84C160.22,328.93,148.72,333,129.5,333Z"/><path class="cls-3" d="M312,304.59a22.87,22.87,0,1,0-23.9,0c-14.12,3.16-24,11.8-24,22.26,0,8.56,22.62,10.84,36,10.84s36-2.28,36-10.84C336,316.39,326.07,307.75,312,304.59Zm-30.11-19.44A18.16,18.16,0,1,1,300,303.28,18.17,18.17,0,0,1,281.84,285.15ZM300,333c-19.21,0-30.71-4.05-31.27-6.14,0-10.4,14-18.85,31.27-18.85s31.25,8.45,31.27,18.84C330.72,328.93,319.22,333,300,333Z"/><path class="cls-3" d="M482.45,304.59a22.87,22.87,0,1,0-23.9,0c-14.12,3.16-24,11.8-24,22.26,0,8.56,22.62,10.84,36,10.84s36-2.28,36-10.84C506.48,316.39,496.57,307.75,482.45,304.59Zm-30.11-19.44a18.16,18.16,0,1,1,18.16,18.13A18.17,18.17,0,0,1,452.34,285.15ZM470.5,333c-19.21,0-30.71-4.05-31.27-6.14,0-10.4,14-18.85,31.27-18.85s31.25,8.45,31.27,18.84C501.22,328.93,489.72,333,470.5,333Z"/><path class="cls-3" d="M141.45,478.59a22.87,22.87,0,1,0-23.9,0c-14.12,3.16-24,11.8-24,22.26,0,8.56,22.62,10.84,36,10.84s36-2.28,36-10.84C165.48,490.39,155.57,481.75,141.45,478.59Zm-30.11-19.44a18.16,18.16,0,1,1,18.16,18.13A18.17,18.17,0,0,1,111.34,459.15ZM129.5,507c-19.21,0-30.71-4.05-31.27-6.14,0-10.4,14-18.85,31.27-18.85s31.25,8.45,31.27,18.84C160.22,502.93,148.72,507,129.5,507Z"/><path class="cls-3" d="M312,478.59a22.87,22.87,0,1,0-23.9,0c-14.12,3.16-24,11.8-24,22.26,0,8.56,22.62,10.84,36,10.84s36-2.28,36-10.84C336,490.39,326.07,481.75,312,478.59Zm-30.11-19.44A18.16,18.16,0,1,1,300,477.28,18.17,18.17,0,0,1,281.84,459.15ZM300,507c-19.21,0-30.71-4.05-31.27-6.14,0-10.4,14-18.85,31.27-18.85s31.25,8.45,31.27,18.84C330.72,502.93,319.22,507,300,507Z"/><path class="cls-3" d="M482.45,478.59a22.87,22.87,0,1,0-23.9,0c-14.12,3.16-24,11.8-24,22.26,0,8.56,22.62,10.84,36,10.84s36-2.28,36-10.84C506.48,490.39,496.57,481.75,482.45,478.59Zm-30.11-19.44a18.16,18.16,0,1,1,18.16,18.13A18.17,18.17,0,0,1,452.34,459.15ZM470.5,507c-19.21,0-30.71-4.05-31.27-6.14,0-10.4,14-18.85,31.27-18.85s31.25,8.45,31.27,18.84C501.22,502.93,489.72,507,470.5,507Z"/><line class="cls-4" x1="129" y1="187" x2="129" y2="241"/><line class="cls-4" x1="300" y1="187" x2="300" y2="241"/><line class="cls-4" x1="471" y1="187" x2="471" y2="241"/><line class="cls-4" x1="188" y1="129" x2="242" y2="129"/><line class="cls-4" x1="360" y1="129" x2="414" y2="129"/><line class="cls-4" x1="188" y1="303" x2="242" y2="303"/><line class="cls-4" x1="360" y1="303" x2="414" y2="303"/><line class="cls-4" x1="129" y1="363" x2="129" y2="417"/><line class="cls-4" x1="300" y1="363" x2="300" y2="417"/><line class="cls-4" x1="471" y1="363" x2="471" y2="417"/><line class="cls-4" x1="360" y1="477" x2="414" y2="477"/><line class="cls-4" x1="188" y1="477" x2="242" y2="477"/></svg>