<svg id="Layer_1" data-name="Layer 1" xmlns="http://www.w3.org/2000/svg" viewBox="0 0 600 600"><defs><style>.cls-1{fill:#514a9d;}.cls-2{fill:#f4f5f6;opacity:0.9;}</style></defs><title>opaque</title><path class="cls-1" d="M141.45,130.59a22.87,22.87,0,1,0-23.9,0c-14.12,3.16-24,11.8-24,22.26,0,8.56,22.62,10.84,36,10.84s36-2.28,36-10.84C165.48,142.39,155.57,133.75,141.45,130.59Zm-30.11-19.44a18.16,18.16,0,1,1,18.16,18.13A18.17,18.17,0,0,1,111.34,111.15ZM129.5,159c-19.21,0-30.71-4-31.27-6.14,0-10.4,14-18.85,31.27-18.85s31.25,8.45,31.27,18.84C160.22,154.93,148.72,159,129.5,159Z"/><path class="cls-1" d="M312,130.59a22.87,22.87,0,1,0-23.9,0c-14.12,3.16-24,11.8-24,22.26,0,8.56,22.62,10.84,36,10.84s36-2.28,36-10.84C336,142.39,326.07,133.75,312,130.59Zm-30.11-19.44A18.16,18.16,0,1,1,300,129.28,18.17,18.17,0,0,1,281.84,111.15ZM300,159c-19.21,0-30.71-4-31.27-6.14,0-10.4,14-18.85,31.27-18.85s31.25,8.45,31.27,18.84C330.72,154.93,319.22,159,300,159Z"/><path class="cls-1" d="M482.45,130.59a22.87,22.87,0,1,0-23.9,0c-14.12,3.16-24,11.8-24,22.26,0,8.56,22.62,10.84,36,10.84s36-2.28,36-10.84C506.48,142.39,496.57,133.75,482.45,130.59Zm-30.11-19.44a18.16,18.16,0,1,1,18.16,18.13A18.17,18.17,0,0,1,452.34,111.15ZM470.5,159c-19.21,0-30.71-4-31.27-6.14,0-10.4,14-18.85,31.27-18.85s31.25,8.45,31.27,18.84C501.22,154.93,489.72,159,470.5,159Z"/><path class="cls-1" d="M141.45,304.59a22.87,22.87,0,1,0-23.9,0c-14.12,3.16-24,11.8-24,22.26,0,8.56,22.62,10.84,36,10.84s36-2.28,36-10.84C165.48,316.39,155.57,307.75,141.45,304.59Zm-30.11-19.44a18.16,18.16,0,1,1,18.16,18.13A18.17,18.17,0,0,1,111.34,285.15ZM129.5,333c-19.21,0-30.71-4.05-31.27-6.14,0-10.4,14-18.85,31.27-18.85s31.25,8.45,31.27,18.84C160.22,328.93,148.72,333,129.5,333Z"/><path class="cls-1" d="M312,304.59a22.87,22.87,0,1,0-23.9,0c-14.12,3.16-24,11.8-24,22.26,0,8.56,22.62,10.84,36,10.84s36-2.28,36-10.84C336,316.39,326.07,307.75,312,304.59Zm-30.11-19.44A18.16,18.16,0,1,1,300,303.28,18.17,18.17,0,0,1,281.84,285.15ZM300,333c-19.21,0-30.71-4.05-31.27-6.14,0-10.4,14-18.85,31.27-18.85s31.25,8.45,31.27,18.84C330.72,328.93,319.22,333,300,333Z"/><path class="cls-1" d="M482.45,304.59a22.87,22.87,0,1,0-23.9,0c-14.12,3.16-24,11.8-24,22.26,0,8.56,22.62,10.84,36,10.84s36-2.28,36-10.84C506.48,316.39,496.57,307.75,482.45,304.59Zm-30.11-19.44a18.16,18.16,0,1,1,18.16,18.13A18.17,18.17,0,0,1,452.34,285.15ZM470.5,333c-19.21,0-30.71-4.05-31.27-6.14,0-10.4,14-18.85,31.27-18.85s31.25,8.45,31.27,18.84C501.22,328.93,489.72,333,470.5,333Z"/><path class="cls-1" d="M141.45,478.59a22.87,22.87,0,1,0-23.9,0c-14.12,3.16-24,11.8-24,22.26,0,8.56,22.62,10.84,36,10.84s36-2.28,36-10.84C165.48,490.39,155.57,481.75,141.45,478.59Zm-30.11-19.44a18.16,18.16,0,1,1,18.16,18.13A18.17,18.17,0,0,1,111.34,459.15ZM129.5,507c-19.21,0-30.71-4.05-31.27-6.14,0-10.4,14-18.85,31.27-18.85s31.25,8.45,31.27,18.84C160.22,502.93,148.72,507,129.5,507Z"/><path class="cls-1" d="M312,478.59a22.87,22.87,0,1,0-23.9,0c-14.12,3.16-24,11.8-24,22.26,0,8.56,22.62,10.84,36,10.84s36-2.28,36-10.84C336,490.39,326.07,481.75,312,478.59Zm-30.11-19.44A18.16,18.16,0,1,1,300,477.28,18.17,18.17,0,0,1,281.84,459.15ZM300,507c-19.21,0-30.71-4.05-31.27-6.14,0-10.4,14-18.85,31.27-18.85s31.25,8.45,31.27,18.84C330.72,502.93,319.22,507,300,507Z"/><path class="cls-1" d="M482.45,478.59a22.87,22.87,0,1,0-23.9,0c-14.12,3.16-24,11.8-24,22.26,0,8.56,22.62,10.84,36,10.84s36-2.28,36-10.84C506.48,490.39,496.57,481.75,482.45,478.59Zm-30.11-19.44a18.16,18.16,0,1,1,18.16,18.13A18.17,18.17,0,0,1,452.34,459.15ZM470.5,507c-19.21,0-30.71-4.05-31.27-6.14,0-10.4,14-18.85,31.27-18.85s31.25,8.45,31.27,18.84C501.22,502.93,489.72,507,470.5,507Z"/><rect class="cls-2" x="52" y="48" width="155" height="155" rx="8.89" ry="8.89"/><rect class="cls-2" x="394" y="223" width="155" height="155" rx="8.89" ry="8.89"/><rect class="cls-2" x="52" y="397" width="155" height="155" rx="8.89" ry="8.89"/></svg>