<svg id="Layer_1" data-name="Layer 1" xmlns="http://www.w3.org/2000/svg" viewBox="0 0 600 600"><defs><style>.cls-1{fill:#514a9d;}.cls-2{fill:#24c6dc;}.cls-3{fill:none;stroke:#514a9d;stroke-miterlimit:10;stroke-width:10px;}</style></defs><title>trust</title><path class="cls-1" d="M111.8,307.14a35.6,35.6,0,1,0-37.2,0c-22,4.93-37.41,18.38-37.41,34.66,0,13.32,35.21,16.88,56,16.88s56-3.56,56-16.88C149.21,325.52,133.78,312.07,111.8,307.14ZM64.93,276.88A28.27,28.27,0,1,1,93.2,305.1,28.28,28.28,0,0,1,64.93,276.88ZM93.2,351.34c-29.9,0-47.8-6.31-48.67-9.57,0-16.17,21.85-29.33,48.67-29.33s48.64,13.15,48.67,29.33C141,345,123.12,351.34,93.2,351.34Z"/><path class="cls-1" d="M318.6,519.41a35.6,35.6,0,1,0-37.2,0c-22,4.92-37.41,18.37-37.41,34.65,0,13.33,35.21,16.88,56,16.88s56-3.55,56-16.88C356,537.78,340.58,524.33,318.6,519.41Zm-46.87-30.26A28.27,28.27,0,1,1,300,517.37,28.28,28.28,0,0,1,271.73,489.15ZM300,563.61c-29.9,0-47.8-6.31-48.67-9.57,0-16.18,21.85-29.34,48.67-29.34s48.64,13.16,48.67,29.33C347.82,557.29,329.92,563.61,300,563.61Z"/><path class="cls-1" d="M525.4,307.14a35.6,35.6,0,1,0-37.2,0c-22,4.93-37.41,18.38-37.41,34.66,0,13.32,35.21,16.88,56,16.88s56-3.56,56-16.88C562.81,325.52,547.38,312.07,525.4,307.14Zm-46.87-30.26A28.27,28.27,0,1,1,506.8,305.1,28.28,28.28,0,0,1,478.53,276.88Zm28.27,74.46c-29.9,0-47.8-6.31-48.67-9.57,0-16.17,21.85-29.33,48.67-29.33s48.64,13.15,48.67,29.33C554.62,345,536.72,351.34,506.8,351.34Z"/><path class="cls-1" d="M318.6,94.88a35.6,35.6,0,1,0-37.2,0c-22,4.92-37.41,18.37-37.41,34.65,0,13.33,35.21,16.88,56,16.88s56-3.55,56-16.88C356,113.25,340.58,99.8,318.6,94.88ZM271.73,64.62A28.27,28.27,0,1,1,300,92.84,28.28,28.28,0,0,1,271.73,64.62ZM300,139.08c-29.9,0-47.8-6.31-48.67-9.57,0-16.18,21.85-29.34,48.67-29.34s48.64,13.16,48.67,29.33C347.82,132.76,329.92,139.08,300,139.08Z"/><g id="Icon-Lock"><path id="Fill-66" class="cls-2" d="M344.75,289.83h-9.39v-20a35.36,35.36,0,1,0-70.72,0v20h-9.39v-20a44.75,44.75,0,1,1,89.5,0v20"/><path id="Fill-67" class="cls-2" d="M340.06,375H259.94a15.23,15.23,0,0,1-15-15V299.84a15.24,15.24,0,0,1,15-15h80.12a15.24,15.24,0,0,1,15,15v60.09a15,15,0,0,1-15,15Zm-80.12-80.11a4.94,4.94,0,0,0-5,5v60.09a4.94,4.94,0,0,0,5,5h80.12a4.94,4.94,0,0,0,5-5V299.84a4.94,4.94,0,0,0-5-5Z"/><path id="Fill-68" class="cls-2" d="M310,314.86a10,10,0,1,1-10-10,10.08,10.08,0,0,1,10,10"/><polyline id="Fill-69" class="cls-2" points="302.5 314.87 297.5 314.87 292.49 344.91 307.51 344.91 302.5 314.87"/></g><line class="cls-3" x1="369" y1="315" x2="423" y2="315"/><line class="cls-3" x1="175" y1="315" x2="229" y2="315"/><line class="cls-3" x1="300" y1="159" x2="300" y2="213"/><line class="cls-3" x1="300" y1="387" x2="300" y2="441"/></svg>